<svg width="1366" height="668" viewBox="0 0 1366 668" fill="none" xmlns="http://www.w3.org/2000/svg">
<rect width="1366" height="668" fill="white"/>
<rect x="62" width="1304" height="668" fill="white"/>
<path fill-rule="evenodd" clip-rule="evenodd" d="M198 411C246.049 411 285 369.362 285 318C285 266.638 246.049 225 198 225C149.951 225 111 266.638 111 318C111 369.362 149.951 411 198 411ZM203.493 382.952C241.053 382.952 271.502 349.907 271.502 309.143C271.502 268.379 241.053 235.333 203.493 235.333C165.932 235.333 135.483 268.379 135.483 309.143C135.483 349.907 165.932 382.952 203.493 382.952Z" fill="#9B51E0" fill-opacity="0.36"/>
<path fill-rule="evenodd" clip-rule="evenodd" d="M443 305C515.349 305 574 246.797 574 175C574 103.203 515.349 45 443 45C370.651 45 312 103.203 312 175C312 246.797 370.651 305 443 305ZM451.271 265.794C507.827 265.794 553.675 219.601 553.675 162.619C553.675 105.637 507.827 59.4444 451.271 59.4444C394.714 59.4444 348.866 105.637 348.866 162.619C348.866 219.601 394.714 265.794 451.271 265.794Z" fill="#9B51E0" fill-opacity="0.36"/>
<path fill-rule="evenodd" clip-rule="evenodd" d="M1054 645C1102.6 645 1142 606.496 1142 559C1142 511.504 1102.6 473 1054 473C1005.4 473 966 511.504 966 559C966 606.496 1005.4 645 1054 645ZM1059.56 619.063C1097.55 619.063 1128.35 588.505 1128.35 550.81C1128.35 513.114 1097.55 482.556 1059.56 482.556C1021.56 482.556 990.765 513.114 990.765 550.81C990.765 588.505 1021.56 619.063 1059.56 619.063Z" fill="#9B51E0" fill-opacity="0.36"/>
<path fill-rule="evenodd" clip-rule="evenodd" d="M914.962 391C950.287 391 978.924 362.794 978.924 328C978.924 293.206 950.287 265 914.962 265C879.637 265 851 293.206 851 328C851 362.794 879.637 391 914.962 391ZM919 372C946.614 372 969 349.614 969 322C969 294.386 946.614 272 919 272C891.386 272 869 294.386 869 322C869 349.614 891.386 372 919 372Z" fill="#9B51E0" fill-opacity="0.36"/>
<path fill-rule="evenodd" clip-rule="evenodd" d="M357 619C396.764 619 429 586.317 429 546C429 505.683 396.764 473 357 473C317.235 473 285 505.683 285 546C285 586.317 317.235 619 357 619ZM361.546 596.984C392.63 596.984 417.829 571.045 417.829 539.048C417.829 507.05 392.63 481.111 361.546 481.111C330.461 481.111 305.262 507.05 305.262 539.048C305.262 571.045 330.461 596.984 361.546 596.984Z" fill="#9B51E0" fill-opacity="0.36"/>
<path fill-rule="evenodd" clip-rule="evenodd" d="M1240 411C1288.05 411 1327 369.362 1327 318C1327 266.638 1288.05 225 1240 225C1191.95 225 1153 266.638 1153 318C1153 369.362 1191.95 411 1240 411ZM1245.49 382.952C1283.05 382.952 1313.5 349.907 1313.5 309.143C1313.5 268.379 1283.05 235.333 1245.49 235.333C1207.93 235.333 1177.48 268.379 1177.48 309.143C1177.48 349.907 1207.93 382.952 1245.49 382.952Z" fill="#9B51E0" fill-opacity="0.36"/>
<path fill-rule="evenodd" clip-rule="evenodd" d="M759.962 199C795.287 199 823.924 170.794 823.924 136C823.924 101.206 795.287 73 759.962 73C724.637 73 696 101.206 696 136C696 170.794 724.637 199 759.962 199ZM764 180C791.614 180 814 157.614 814 130C814 102.386 791.614 80 764 80C736.386 80 714 102.386 714 130C714 157.614 736.386 180 764 180Z" fill="#9B51E0" fill-opacity="0.36"/>
</svg>
